<svg xmlns="http://www.w3.org/2000/svg" viewBox="0 0 96.88 72.01"><defs><style>.cls-1{fill:#fff;}</style></defs><g id="レイヤー_2" data-name="レイヤー 2"><g id="デザインカンプ"><g id="pnZnHj"><path class="cls-1" d="M26.61,40.12a6.55,6.55,0,0,1-1.81-.26,48.34,48.34,0,0,0-9.35-1.75c-1.54-.14-2.91-.2-4.19-.2-1,0-1.89,0-2.78.11a17.53,17.53,0,0,0-7.15,1.87,1.08,1.08,0,0,1-.52.16c-.48,0-.8-.42-.8-1V4.93C0,4.46,0,4,0,3.5a1,1,0,0,1,.58-1A16.52,16.52,0,0,1,5.86.7,43.52,43.52,0,0,1,13.5,0,38.92,38.92,0,0,1,24.3,1.52a24.38,24.38,0,0,1,2.57,1c.34.16.69.31,1,.45a1,1,0,0,1,.67,1.1q0,10.49,0,21v8.39c0,.62-.32,1-.83,1s-.83-.4-.83-1v-3c0-8.3,0-16.88,0-25.32A1.06,1.06,0,0,0,26.19,4,26.6,26.6,0,0,0,19,2.1a39.28,39.28,0,0,0-5.4-.36c-.71,0-1.45,0-2.19.05A27.88,27.88,0,0,0,2.5,3.45a1.18,1.18,0,0,0-.85,1.26c0,8.86,0,17.88,0,26.6v6a.29.29,0,0,0,.29.28H2l.87-.24c.62-.17,1.21-.33,1.82-.48a26.27,26.27,0,0,1,5.76-.64h.86a50.43,50.43,0,0,1,14,2,4.38,4.38,0,0,0,1.18.15,6,6,0,0,0,1.51-.2,53.23,53.23,0,0,1,10.19-1.8c1.45-.11,2.65-.16,3.77-.16a29.36,29.36,0,0,1,3.5.2,36.3,36.3,0,0,1,3.57.7l1.52.34a3,3,0,0,1,.33.1l.24.09h.09a.25.25,0,0,0,.16,0,.27.27,0,0,0,.12-.22v-.21c0-.14,0-.27,0-.39V30q0-12.67,0-25.36a1.06,1.06,0,0,0-.74-1.11A22.21,22.21,0,0,0,44.76,2a32.91,32.91,0,0,0-4.12-.26,28.93,28.93,0,0,0-3.27.18c-1.28.15-2.56.42-3.8.68l-1.52.31a2.58,2.58,0,0,0-.42.13c-.1,0-.19.07-.29.09a.91.91,0,0,1-.23,0,.85.85,0,0,1-.82-.58.86.86,0,0,1,.05-.65.78.78,0,0,1,.46-.39c.94-.31,1.81-.56,2.64-.75A31.57,31.57,0,0,1,40.5,0c1.12,0,2.29.05,3.48.15a21.38,21.38,0,0,1,8.26,2.14A3.81,3.81,0,0,1,53,2.9l.26.24V39.48c-.36.49-.59.55-.78.55a1.78,1.78,0,0,1-.79-.26,16.15,16.15,0,0,0-5.81-1.64,33.66,33.66,0,0,0-4-.23c-1.41,0-2.89.08-4.52.24a47.37,47.37,0,0,0-8.94,1.72A6.48,6.48,0,0,1,26.61,40.12Z"/></g><path class="cls-1" d="M96.87,24.55c-.06-1.45-2.05-3.88-3.22-5a9.34,9.34,0,0,0-2.79-1.8,1.35,1.35,0,0,0-1.28,0h0l0,0-.13.1-.06.05L43.52,62.22v0a.64.64,0,0,0-.1.13l0,0a.87.87,0,0,0-.07.17c0,.11-2.31,8.3-2.31,8.3a.9.9,0,0,0,.19.87.89.89,0,0,0,.64.27c.08,0,8.19-2,8.19-2,.33,0,1-.63,1.06-.73,2.92-2.89,45.44-43.92,45.49-44A.94.94,0,0,0,96.87,24.55ZM48.07,68.63l-.58.12h-.06l-.49.13-.46.1-2.39-2.43c.18-.8.37-1.59.56-2.38,0-.09.05-.19.08-.28h.17l.1,0,.08,0,.1,0,.08,0,.09,0,.07.05.09.09.07.06.1.12.06.08s.07.1.1.16l.06.09.16.31a10.42,10.42,0,0,0,1.23,2,2.27,2.27,0,0,0,1.39.79c.1.2.18.39.27.59l0,0Zm24-22.08c-9.32,9-18.16,17.48-21.62,20.87l-.19-.4a1.62,1.62,0,0,0-1.34-1,.43.43,0,0,1-.23-.12,8.21,8.21,0,0,1-1-1.63l-.11-.23,0-.06c0-.08-.09-.16-.13-.25h0l-.15-.23,0-.06a1.88,1.88,0,0,0-.18-.24l0,0L46.79,63l0-.05-.23-.2,0,0a1.88,1.88,0,0,0-.23-.16l-.07,0-.3-.15h0l.51-.53.9-.89h0l1.12-1.1,1.25-1.24c.54-.53,1.09-1,1.62-1.59,1.93-1.9,10.8-10.41,19.38-18.63,7.85-7.53,15.95-15.29,18.95-18.22a11.58,11.58,0,0,0,2.13,2.75A11,11,0,0,0,94.4,25C90.69,28.65,81.23,37.74,72.07,46.55Z"/></g></g></svg>