<svg xmlns="http://www.w3.org/2000/svg" viewBox="0 0 154.47 192.38"><defs><style>.cls-1{fill:#f2f2f2;}.cls-2{fill:none;stroke:#fed385;stroke-linecap:round;stroke-miterlimit:10;stroke-width:5px;}.cls-3{fill:#fd8369;}.cls-4{fill:#d37c59;}.cls-5{fill:#74d5de;}.cls-6{fill:#fed385;}.cls-7{fill:#de8e68;}</style></defs><g id="レイヤー_2" data-name="レイヤー 2"><g id="デザインカンプ"><path class="cls-1" d="M24.36,20.71C9.22,30-1.5,46.71.17,62.45S16,92.94,20.86,111.57s.47,41.18,8.57,52.65,28.68,12,45.49,6.94,29.91-15.6,44.43-25.07,30.46-17.81,34.21-29.89-4.7-27.79-13.9-39.53-19.11-19.56-29.4-30.42-20.93-24.79-36-30.81S39.49,11.38,24.36,20.71Z"/><line class="cls-2" x1="64.45" y1="139.5" x2="67.82" y2="79.48"/><line class="cls-2" x1="64.45" y1="139.5" x2="105.08" y2="85.63"/><line class="cls-2" x1="64.45" y1="139.5" x2="107.64" y2="45.46"/><ellipse class="cls-3" cx="116.92" cy="30.02" rx="23.45" ry="18.28" transform="translate(48.74 129.64) rotate(-70.01)"/><ellipse class="cls-4" cx="70.49" cy="61.36" rx="23.45" ry="18.28" transform="matrix(0.07, -1, 1, 0.07, 4.37, 127.41)"/><ellipse class="cls-5" cx="116.92" cy="63.45" rx="26.01" ry="21.94" transform="translate(8.71 140.82) rotate(-64.05)"/><ellipse class="cls-5" cx="82.76" cy="22.3" rx="22.37" ry="18.53" transform="translate(48.27 100.76) rotate(-81.35)"/><ellipse class="cls-6" cx="91.32" cy="52.62" rx="21.7" ry="16.1" transform="translate(14.45 124.73) rotate(-73.12)"/><path class="cls-4" d="M68.82,84.06,70.91,89a.89.89,0,0,1-.48,1.17.85.85,0,0,1-.45.06l-5.29-.65a.89.89,0,0,1-.78-1,.83.83,0,0,1,.18-.43l3.21-4.26a.89.89,0,0,1,1.25-.16A.85.85,0,0,1,68.82,84.06Z"/><line class="cls-2" x1="64.45" y1="139.5" x2="56.79" y2="53.36"/><line class="cls-2" x1="64.45" y1="139.5" x2="84.88" y2="71.24"/><path class="cls-6" d="M85.64,71.3l1.22,5.19a.9.9,0,0,1-1.13,1.06L80.62,76A.88.88,0,0,1,80,74.89a.91.91,0,0,1,.24-.4l3.89-3.64a.89.89,0,0,1,1.26,0A.82.82,0,0,1,85.64,71.3Z"/><path class="cls-5" d="M106.46,84.73l-.37,5.32a.89.89,0,0,1-1.4.67l-4.41-3A.89.89,0,0,1,100,86.5a.92.92,0,0,1,.35-.3l4.79-2.34a.9.9,0,0,1,1.19.42A.87.87,0,0,1,106.46,84.73Z"/><ellipse class="cls-3" cx="54.93" cy="30.02" rx="21.94" ry="26.01" transform="translate(-2.23 4.5) rotate(-4.6)"/><path class="cls-3" d="M57.43,53.92l3,4.39a.9.9,0,0,1-.24,1.24.82.82,0,0,1-.42.15l-5.31.44a.89.89,0,0,1-1-.82,1,1,0,0,1,.08-.45l2.29-4.82a.89.89,0,0,1,1.18-.43A.88.88,0,0,1,57.43,53.92Z"/><rect class="cls-7" x="49.76" y="138.63" width="46.44" height="51.84" transform="translate(-102.64 204.05) rotate(-78.76)"/><polygon class="cls-4" points="54.13 152.52 104.98 162.62 102.94 146.83 52.09 136.72 54.13 152.52"/><rect class="cls-4" x="9.78" y="141.76" width="46.44" height="29.68" transform="translate(-127.03 158.45) rotate(-78.76)"/><polygon class="cls-7" points="44.3 150.56 15.25 144.79 23.03 130.94 52.09 136.72 44.3 150.56"/><rect class="cls-4" x="62.94" y="174.59" width="13.7" height="12.03" transform="translate(-120.96 213.85) rotate(-78.76)"/><rect class="cls-6" x="54.67" y="152.45" width="10" height="18.12" transform="translate(-110.37 188.55) rotate(-78.76)"/><rect class="cls-3" x="61.32" y="160.41" width="7.27" height="4.1" transform="translate(-107.05 194.5) rotate(-78.76)"/><rect class="cls-3" x="56.95" y="152.93" width="1.38" height="10.24" transform="translate(-108.61 183.78) rotate(-78.76)"/><rect class="cls-3" x="56.49" y="155.25" width="1.38" height="10.24" transform="translate(-111.26 185.19) rotate(-78.76)"/></g></g></svg>