<svg xmlns="http://www.w3.org/2000/svg" viewBox="0 0 249.74 189.56"><defs><style>.cls-1{fill:#f8f8f8;}.cls-2{fill:none;stroke:#dfdfdf;stroke-linecap:round;stroke-linejoin:round;stroke-width:5px;}.cls-3{fill:#d37c59;}.cls-4{fill:#56cad8;}.cls-5{fill:#fcc486;}.cls-6{fill:#74d5de;}.cls-7{fill:#fed385;}.cls-8{fill:#de8e68;}.cls-9{fill:#fed892;}</style></defs><g id="レイヤー_2" data-name="レイヤー 2"><g id="デザインカンプ"><path class="cls-1" d="M143.3,14.74c18.76,4.93,34.18,26.52,33.94,47.81s-16.13,42.18-29.44,62.33-23.86,39.53-37.27,40.55-29.65-16.35-43.07-27.86-24.1-17.19-33.26-27.3-16.81-24.69-15-37.74S32.21,48,44,41.7,68,34.28,85.22,27.87,124.53,9.78,143.3,14.74Z"/><polygon points="4.09 172.93 0 176.7 9.81 189.56 12.84 186.88 8.17 175.44 4.09 172.93"/><circle class="cls-2" cx="147.42" cy="171.92" r="4.86"/><circle class="cls-2" cx="242.38" cy="171.92" r="4.86"/><path class="cls-2" d="M163.11,139.23,129.57,73c-1-.6-5.13-3.24-5.13-3.24"/><path class="cls-2" d="M127.16,78.25c-.4-1.32-1.6-4-1.6-4-.74,0-5.85-2.67-5.85-2.67"/><line class="cls-2" x1="118.25" y1="71.77" x2="134.14" y2="65.28"/><polygon points="83.28 161.19 79.9 167.41 88.29 180.47 91.82 179.55 89.5 162.52 83.28 161.19"/><ellipse class="cls-3" cx="121.5" cy="69.29" rx="4.99" ry="3.72"/><path class="cls-4" d="M54.9,73.22C52.66,76.43,3.32,173.31,3.32,173.31l5.58,3.4L74,106.26Z"/><path class="cls-3" d="M97.41,49.71c1.28,1.1,5,5.36,6.27,6.14s15.31,9.56,18,10.34-3,3.08-3,3.08S100.31,65.2,99,64.3s-9.39-7.38-9.39-9.11S97.41,49.71,97.41,49.71Z"/><path class="cls-5" d="M86.65,41.37c4.1-4.44,12.1,6.1,11.92,7.64s-5.83,8.05-9.41,8.05C88.08,57.06,83.78,44.49,86.65,41.37Z"/><path class="cls-6" d="M54.27,74.19c-1,1.29-5.13,11.55-5.13,15.08,0,24,35.86,30.29,41,30.29-.74,3.36-8.63,41.5-8.26,42.34s6.92,2.54,8.26,2.32c5.13-2.79,21.7-41.69,20.45-47.22-1.75-7.76-29.18-30.43-33.15-32.68S54.27,74.19,54.27,74.19Z"/><path class="cls-7" d="M78,31.43c27.6,0,6.22,51.88,1.36,54.7C76.11,88,56.23,80.93,54.1,73.86,53.37,71.45,62.71,31.43,78,31.43Z"/><ellipse class="cls-8" cx="117.3" cy="71.04" rx="4.99" ry="3.72"/><path class="cls-8" d="M69.15,55.39c.07,2.61.94,14.62,2,15,13.15,4.38,35.92,2.45,39.85,2.19s6.45-3,6.26-3.69-12.56-5.7-34-6.29c-.4-2.43.55-9.76-.43-10.41S69.15,55.39,69.15,55.39Z"/><path class="cls-9" d="M72.8,33.65c11.42-2.33,13.47,19,12.37,20.56S69.53,58,67.63,56.63,64.14,35.42,72.8,33.65Z"/><path class="cls-3" d="M80.57,18.17c-.52,2-4.11,13.5-3.89,14.11s5.16,3.3,7,3a26.31,26.31,0,0,1,2.53-8.38C87.91,24.08,80.57,18.17,80.57,18.17Z"/><ellipse class="cls-8" cx="87.84" cy="17.49" rx="11.13" ry="7.39" transform="translate(61.62 103.12) rotate(-84.23)"/><path class="cls-9" d="M79.77,18.17c-.84-.46-2.43-3.18-2.43-5.71,0-4,3.94-6.2,6.6-7.37C86,4.19,87.66,0,92.24,0c3.65,0,3.9,3.68,5.58,3.82,4.35.36,6.8.53,6.8,3.69,0,2.33-3,8.66-9.07,8.66a17.29,17.29,0,0,0-1-5.49c-3.65.18-6.63,4.88-11.7,4.86C81.71,15.52,79.77,18.17,79.77,18.17Z"/><ellipse class="cls-8" cx="81.69" cy="17.39" rx="2.25" ry="2.75"/><path class="cls-2" d="M243.78,164.22H139V141.49c5.73-.51,87.2-8.2,87.2-8.2V83.85l-99-5.6L139,141.5"/><line class="cls-2" x1="131.03" y1="98.92" x2="226.2" y2="98.92"/><line class="cls-2" x1="133.66" y1="112.97" x2="226.2" y2="112.97"/><line class="cls-2" x1="110.2" y1="75.05" x2="118.25" y2="71.77"/><path class="cls-2" d="M141.71,113c-1-3-12.1-34.58-12.1-34.58"/></g></g></svg>