<svg xmlns="http://www.w3.org/2000/svg" viewBox="0 0 200.93 27.95"><defs><style>.cls-1{fill:#fff;}</style></defs><g id="レイヤー_2" data-name="レイヤー 2"><g id="デザインカンプ"><path class="cls-1" d="M11.31,25.24c.32.31.45.22.29-.19L7.87,15.67a1.3,1.3,0,0,0-1.12-.76H1.18c-.44,0-.54.26-.22.56Z"/><path class="cls-1" d="M14.5.07C10.69,2.77,8.91,7.8,9,12.73a.55.55,0,0,0,.54.53H19.88a.55.55,0,0,0,.54-.53c.09-4.93-1.69-10-5.5-12.66A.36.36,0,0,0,14.5.07Z"/><path class="cls-1" d="M19.78,15.67a.52.52,0,0,0-.52-.76h-9.1a.52.52,0,0,0-.52.76l4.77,12c.16.41.44.41.6,0Z"/><path class="cls-1" d="M22.67,14.91a1.3,1.3,0,0,0-1.12.76L17.82,25c-.16.41,0,.5.29.2l10.35-9.77c.32-.3.22-.56-.23-.56Z"/><path class="cls-1" d="M7.24,12.73A18,18,0,0,1,11.68.38a.18.18,0,0,0-.17-.3A14.81,14.81,0,0,0,0,12.87a.36.36,0,0,0,.36.39H6.7A.53.53,0,0,0,7.24,12.73Z"/><path class="cls-1" d="M22.71,13.26h6.35a.35.35,0,0,0,.35-.39A14.79,14.79,0,0,0,17.91.08a.18.18,0,0,0-.17.3,18,18,0,0,1,4.43,12.35A.54.54,0,0,0,22.71,13.26Z"/><path class="cls-1" d="M41.92,19.75V7h2.66a9.48,9.48,0,0,1,3,.38,5.5,5.5,0,0,1,2.17,1.26,6.08,6.08,0,0,1,2,4.71,6.06,6.06,0,0,1-2,4.75,6.16,6.16,0,0,1-2.16,1.26,10,10,0,0,1-3,.35ZM43.84,18h.86a6.92,6.92,0,0,0,2.15-.28,4.29,4.29,0,0,0,1.55-.91,4.35,4.35,0,0,0,1.41-3.37A4.4,4.4,0,0,0,48.41,10,5.3,5.3,0,0,0,44.7,8.84h-.86Z"/><path class="cls-1" d="M57.76,7V19.75H55.85V7Z"/><path class="cls-1" d="M63.15,7l3.51,8.81L70.23,7h2.1L66.62,20.7,61.05,7Z"/><path class="cls-1" d="M82.61,8.84h-5.1V11.9h4.95v1.8H77.51V18h5.1v1.8h-7V7h7Z"/><path class="cls-1" d="M95.62,7V19.75H93.7V7Z"/><path class="cls-1" d="M100.36,19.75V6.17l9.27,9.7V7h1.92V20.52l-9.27-9.67v8.9Z"/><path class="cls-1" d="M119.79,8.84V19.75h-1.92V8.84H115V7h7.75v1.8Z"/><path class="cls-1" d="M125.47,13.34a6.22,6.22,0,0,1,2-4.61,6.47,6.47,0,0,1,4.71-1.93,6.37,6.37,0,0,1,4.66,1.94,6.36,6.36,0,0,1,1.95,4.67,6.23,6.23,0,0,1-2,4.65,6.72,6.72,0,0,1-9.17.22A6.25,6.25,0,0,1,125.47,13.34Zm1.93,0a4.75,4.75,0,0,0,4.67,4.82,4.53,4.53,0,0,0,3.37-1.39,4.65,4.65,0,0,0,1.38-3.4A4.66,4.66,0,0,0,135.46,10a4.74,4.74,0,0,0-6.69,0A4.6,4.6,0,0,0,127.4,13.36Z"/><path class="cls-1" d="M159.13,7.72V10a5.29,5.29,0,0,0-3.44-1.4,4.39,4.39,0,0,0-3.3,1.41A4.75,4.75,0,0,0,151,13.43a4.62,4.62,0,0,0,1.35,3.37,4.45,4.45,0,0,0,3.31,1.38,4,4,0,0,0,1.72-.33,4.47,4.47,0,0,0,.82-.45,9,9,0,0,0,.89-.67v2.32a6.9,6.9,0,0,1-3.45.93,6.5,6.5,0,0,1-6.57-6.53,6.52,6.52,0,0,1,1.6-4.33,6.61,6.61,0,0,1,8.42-1.4Z"/><path class="cls-1" d="M162.61,13.34a6.22,6.22,0,0,1,2-4.61,6.47,6.47,0,0,1,4.71-1.93,6.37,6.37,0,0,1,4.66,1.94,6.36,6.36,0,0,1,1.95,4.67,6.23,6.23,0,0,1-2,4.65,6.72,6.72,0,0,1-9.17.22A6.28,6.28,0,0,1,162.61,13.34Zm1.93,0a4.75,4.75,0,0,0,4.67,4.82,4.53,4.53,0,0,0,3.37-1.39,4.65,4.65,0,0,0,1.38-3.4A4.66,4.66,0,0,0,172.6,10a4.48,4.48,0,0,0-3.34-1.38A4.53,4.53,0,0,0,165.91,10,4.6,4.6,0,0,0,164.54,13.36Z"/><path class="cls-1" d="M180,19.75V7h2.67a9.48,9.48,0,0,1,3,.38,5.46,5.46,0,0,1,2.16,1.26,6,6,0,0,1,2,4.71,6.19,6.19,0,0,1-4.2,6,10.08,10.08,0,0,1-3,.35Zm1.92-1.8h.86a6.88,6.88,0,0,0,2.15-.28,4.36,4.36,0,0,0,3-4.28,4.43,4.43,0,0,0-1.4-3.39,5.33,5.33,0,0,0-3.72-1.16h-.86Z"/><path class="cls-1" d="M200.93,8.84h-5.09V11.9h4.95v1.8h-4.95V18h5.09v1.8h-7V7h7Z"/></g></g></svg>