<svg xmlns="http://www.w3.org/2000/svg" viewBox="0 0 127.97 115.66"><defs><style>.cls-1{fill:#d1e7e8;}.cls-2{fill:#b7654f;}.cls-3{fill:#c47053;}.cls-4{fill:#d37c59;}.cls-5{fill:#de8e68;}</style></defs><g id="レイヤー_2" data-name="レイヤー 2"><g id="_7.サービス紹介" data-name="7.サービス紹介"><path class="cls-1" d="M40.87,102.59C25.64,102.14,5.94,96.17,1.2,84.67S6.67,56.11,16.66,42.29,36.39,17.77,48.92,9.93s27.79-12.86,39-8S106.1,21.25,113.82,34,130,57.51,127.53,66s-15.88,14.7-26,18.79-17,6.1-25.81,9.61S56.12,103,40.87,102.59Z"/><g id="Layer_2" data-name="Layer 2"><g id="Vector"><path class="cls-2" d="M30.49,58.59C30.42,57.37,22.1,32.81,21.55,32s.34-2.24,1.68-2.24c1,0,9.15,2.87,9.15,8"/><path class="cls-3" d="M31.36,52.29c1.1-16.8-2-40.13-2-41s.33-2.53,1.43-2.53,9.92,5.51,9.92,12.51"/><path class="cls-4" d="M28.87,69c0-2.89.37-10.6.72-12.9S43.4,6.65,43.45,6s.48-1.65,1.24-1.65c5.14,0,6,9.77,6,11.77S44.44,52,43.61,53.88,44.85,69.23,28.87,69Z"/><path class="cls-5" d="M84.25,57.77c-3.34-4.25-25.66-15.42-26.93-15.42S39,53.52,33,59.5,25.44,92.88,25.33,95s-3.69,11.39-4.84,14.73l-1.26,6H52.72c-.12-2.53,4.37-16.8,5-19.33,0,0,13.69-11.39,15.88-13.35S87.36,60.19,87.36,59.39,84.94,57.66,84.25,57.77ZM61.58,77c-2.07,0-14-8.86-14.16-9.32s.92-5.52,1.38-6,10.36-7.48,10.94-7.48,13.69,6.56,18.41,5.52C73.32,62,63.65,77,61.58,77Z"/></g></g></g></g></svg>