<svg xmlns="http://www.w3.org/2000/svg" viewBox="0 0 129.09 118.85"><defs><style>.cls-1{fill:#f2f2f2;}.cls-2{fill:#de8e68;}.cls-3{fill:#74d5de;}.cls-4{fill:#fed385;}.cls-5,.cls-6{fill:none;stroke:#fed385;stroke-miterlimit:10;}.cls-6{stroke-linecap:round;}</style></defs><g id="レイヤー_2" data-name="レイヤー 2"><g id="_7.サービス紹介" data-name="7.サービス紹介"><g id="Layer_2" data-name="Layer 2"><g id="Vector"><path class="cls-1" d="M91.06,2.89c15.08,2.14,34,10.25,37.43,22.2s-8.6,27.78-20.06,40.42S86.1,87.68,72.78,94.09s-29,9.7-39.63,3.68S17.21,76.5,10.94,63-2.53,37.82.88,29.62s17.4-12.86,27.93-15.8S46.37,9.64,55.54,7.13,75.94.76,91.06,2.89Z"/><path class="cls-2" d="M43.06,6.5c-2.41,0-3.17,3.78-3.17,5.29,0,2.56,2.72,13.15,5.29,13.15S50.47,14.5,50.47,13.3,47.29,6.5,43.06,6.5Z"/><rect class="cls-3" x="23.89" y="20.39" width="81.32" height="46.32" rx="4.64" transform="translate(9.38 98.51) rotate(-78.9)"/><path class="cls-4" d="M82.22,5.6l-.46,2.34a2.2,2.2,0,0,1-2.58,1.74L63.51,6.61A2.21,2.21,0,0,1,61.77,4l.47-2.34"/><line class="cls-5" x1="35.64" y1="71.05" x2="81.59" y2="80.48"/><circle class="cls-4" cx="56.87" cy="79.53" r="1.84"/><path class="cls-2" d="M40.19,26.91a5.11,5.11,0,0,0-5.29,5c0,8.46,4.84,15.41,7,15.41,4.53,0,6.19-2.42,6.19-4.08C48.05,42,47.45,26.91,40.19,26.91Z"/><path class="cls-2" d="M38.53,49.11c.91.91,7.86,8.31,7.86,13.45,0,3.48-.76,6.19-7.1,6.19-3,0-11.49-11.93-11.49-16.77,0-2.72,1.67-9.06,6.35-9.06,1.36,0,4.38,2.41,4.83,3a19.07,19.07,0,0,0,1.48,1.36c-.19,1-1.24,6.15-1.24,6.15"/><path class="cls-6" d="M40.76,51.6a40.57,40.57,0,0,0-3.51-3.92"/><path class="cls-2" d="M37.4,79.51C37,80.72,36.64,92.4,38,98.9c-.91,4.68-4.53,19.95-4.53,19.95H66.26l3.33-13.3s20.24-17.69,22.2-20.86S98.36,63,98.3,61.28c-.06-1.21-22.06-19.8-22.67-20.56S64.4,50.61,82.08,62.85c-.15,1.51-.14,8.18-.14,8.18s-12.3,4.23-13.55,5.14S64.75,83.51,64.32,85Z"/><path class="cls-6" d="M61.74,92.52c.42-1.58,2.41-7.23,2.91-8.58"/></g></g></g></g></svg>