<svg xmlns="http://www.w3.org/2000/svg" viewBox="0 0 114.92 109.57"><defs><style>.cls-1{fill:#f3f3f3;}.cls-2{fill:#e1e1e1;}.cls-3{fill:#fd8369;}.cls-4{fill:#fff;}.cls-5{fill:#de8e68;}.cls-6{fill:#6fc9ce;}.cls-7{fill:#febf92;}.cls-8{fill:#fed892;}.cls-9{fill:#74d5de;}.cls-10{fill:#fecc92;}.cls-11{fill:#d38466;}</style></defs><g id="レイヤー_2" data-name="レイヤー 2"><g id="_6.信頼" data-name="6.信頼"><g id="Background"><rect class="cls-1" x="9.94" width="92.14" height="90.82"/><rect class="cls-2" x="9.94" width="92.14" height="6.91"/><circle class="cls-3" cx="14.8" cy="3.55" r="1.09"/><circle class="cls-3" cx="18.31" cy="3.55" r="1.09"/><circle class="cls-3" cx="21.82" cy="3.55" r="1.09"/><rect class="cls-4" x="14.45" y="11.95" width="36.83" height="19.95"/><rect class="cls-4" x="14.45" y="36.64" width="36.83" height="19.95"/><rect class="cls-4" x="60.24" y="36.64" width="36.83" height="43.04"/><rect class="cls-2" x="57.67" y="13.4" width="50.57" height="1.92"/><rect class="cls-2" x="57.67" y="18.83" width="50.57" height="1.92"/><rect class="cls-2" x="57.67" y="24.26" width="50.57" height="1.92"/><rect class="cls-2" x="57.67" y="29.69" width="50.57" height="1.92"/></g><g id="Foreground"><rect class="cls-5" x="83.38" y="90.3" width="1.94" height="2.94"/><rect class="cls-5" x="106.2" y="102.71" width="1.94" height="2.94"/><path class="cls-6" d="M97.59,63.12c-2.34,0-12.8,10.39-13.71,12.14s-.64,15.43-.64,15.43l2.25.43,3.66-12.75c1.59-.19,8.31-1.63,11.77-4.43s-.32-9.08-.32-9.08Z"/><path class="cls-5" d="M93.68,49A39.74,39.74,0,0,0,90,52.92c-.59-.27-6.65-3.47-7.11-3.67s-1.42-1.81-1.74-1.81-.37.37-.37.62a1.38,1.38,0,0,0,.33.9c-.43-.06-4.23-.35-4.23-.1,0,.66,4.25,1.53,4.58,1.71s7.26,6.58,9.66,6.58c.94,0,5.08-2.81,5.08-3.11.39-.27,1-.66,1-.66V51.15l-1.44-1S93.91,48.8,93.68,49Z"/><path class="cls-7" d="M93.53,48.26c.25-2,5-6.71,7.14-4.63,1.89,1.81-1.53,8.28-2.4,8.53S93.47,49.66,93.53,48.26Z"/><path class="cls-8" d="M107.94,44c2.4-1,5.77,4.56,5.39,6.58,0,.89-4.94,2.79-5.69,2.28S105.53,45,107.94,44Z"/><path class="cls-9" d="M98.24,64l8,38.68h2L109,68.19c0-.59,0-4.34,0-4.82A29.62,29.62,0,0,1,98.24,64Z"/><polygon points="106.2 105.65 108.14 105.65 108.14 107.75 102.8 107.75 106.2 105.65"/><polygon points="83.38 93.24 85.31 93.24 85.31 95.34 79.97 95.34 83.38 93.24"/><rect class="cls-3" x="71.74" y="95.34" width="23.06" height="13.5"/><polygon class="cls-3" points="13.84 109.57 4.94 109.47 1.82 98.04 16.75 98.04 13.84 109.57"/><path class="cls-10" d="M102.67,41a7.73,7.73,0,0,1,8,6.56c0,1.61-1.86,11.42-1.79,15.79,0,.72-10.67,1.37-12.13.32C96.1,63.19,94.63,41,102.67,41Z"/><path class="cls-5" d="M113.33,50.58c1.69,2.58,1.59,8.54,1.59,9.43s-6.28,9-6.83,9c-.33-.33-1.24-1.33-1.24-1.63.29-.53,4-8.7,4.7-9.28a36.57,36.57,0,0,1-3.09-5.26C110.8,52.43,113.07,51.44,113.33,50.58Z"/><path class="cls-8" d="M113.33,50.58c.38-2-2.69-7.9-5.39-6.58-2.34,1.15-1.06,8.35-.3,8.86S113,51.92,113.33,50.58Z"/><path class="cls-11" d="M101.15,39.81A5.89,5.89,0,0,0,101.1,42s2.53.21,2.81-.23c0-.37.62-3.63,1.45-4.65.07-.11-.09-.43-.09-.43l-2.93,1.22-1.19,1.94"/><path class="cls-3" d="M104.94,36.93a.81.81,0,0,0,.64.37,1.8,1.8,0,0,0,1.6-2c0-1.14-1.11-1.72-1.11-2.26s.13-.53.13-1c0-.22-.21-.93-.88-.93-.38,0-.52.32-.9.32s-.8-.81-1.43-.81c-.43,0-.84.4-1.29.4s-.88-.77-1.6-.77-1,.67-1.3.67-.43-.1-.8-.1A1.2,1.2,0,0,0,97.08,32a1.23,1.23,0,0,0,1.29,1.37c.63,0,1,1,1.54,1,.22,0,.41-.18.46-.09.21.38.66,1.42.66,1.42l2,1.12Z"/><path class="cls-5" d="M104.5,36.41c0,.18-.07.22-.33.22a.37.37,0,0,1-.31-.34c0-.42.31-.51.31-1,0-.93-2.42-1.41-3.27-1.89h0a2.26,2.26,0,0,0-.61,1.14l-.54,2.8a2.24,2.24,0,0,0,4.39.87l.09-.48h0l.14,0a.62.62,0,0,0,.56-.65C105,36.73,104.5,36.15,104.5,36.41Z"/><path class="cls-6" d="M10.56,93.55C8,76.35,1.7,67.32.9,67.66c-1.13.5-1.46,10.16.56,20.13H1.6a1,1,0,0,1,1,1,1,1,0,0,1-.12.48,1.06,1.06,0,0,1,.59.94,1.07,1.07,0,0,1-.85,1A48.73,48.73,0,0,0,4.5,98h5.57A8.63,8.63,0,0,0,10.56,93.55Z"/><path class="cls-9" d="M25.44,75.31c-1.56,0-3.23,4.48-5.08,4.48-.4,0-.67-.44-.67-.86S21,74.07,21,71.9a4,4,0,0,0,0-.59,1.43,1.43,0,0,1-.71.2,1.38,1.38,0,0,1-.28-2.73,3.51,3.51,0,0,0-2.88-1.41c-1.64,0-3.94,1.46-3.94,3.71,0,.63.19,2.24.19,3.7,0,8.25-6.47,9.49-6.47,18.63A10.32,10.32,0,0,0,8.22,98l5.94.07c.52,0,4.73-7,5.21-7.79,1.84-2.84,7.94-6,7.94-12.73C27.31,76.58,27,75.31,25.44,75.31Z"/></g></g></g></svg>