<svg xmlns="http://www.w3.org/2000/svg" viewBox="0 0 96.99 125.28"><defs><style>.cls-1{fill:#f2f2f2;}.cls-12,.cls-14,.cls-2,.cls-3,.cls-5,.cls-6,.cls-8,.cls-9{fill-rule:evenodd;}.cls-3{fill:#ffd98e;}.cls-10,.cls-11,.cls-13,.cls-4,.cls-7{fill:none;stroke-linecap:round;stroke-linejoin:round;}.cls-11,.cls-4{stroke:#ff8364;}.cls-4{stroke-width:5.73px;}.cls-5{fill:#d18c65;}.cls-6{fill:#ff8364;}.cls-13,.cls-7{stroke:#ffd98e;}.cls-7{stroke-width:2.83px;}.cls-8{fill:#6bd5e1;}.cls-9{fill:#dfdfdf;}.cls-10{stroke:#6bd5e1;}.cls-10,.cls-11{stroke-width:3.11px;}.cls-12{fill:#1b3c87;}.cls-13{stroke-width:4.23px;}.cls-14{fill:#e49d75;}</style></defs><g id="レイヤー_2" data-name="レイヤー 2"><g id="_6.信頼" data-name="6.信頼"><g id="Layer_2" data-name="Layer 2"><g id="Layer_1-2" data-name="Layer 1-2"><path class="cls-1" d="M86,19.76c7.23,8.93,11.91,18.74,10.81,27.48s-7.92,16.37-15.15,27S66.79,98.52,55.76,101.92,30.27,98.5,18.9,87.85-.76,62.76.06,49.13s10.72-26.46,22.09-35.4,24.18-14,35.5-12.48S78.77,10.82,86,19.76Z"/><path class="cls-2" d="M46.23,59.85c7.45,0,11.45,5,12.2,10s-.11,9.46.11,15.71c.14,4.21,2,7,3.19,10.78s-30.54,4.71-30.35,1.19,2.46-7.11,2.54-11.48-.55-7.14-.47-14.4C33.52,66,38.77,59.85,46.23,59.85Z"/><path class="cls-3" d="M15.61,122.64c-.28-3.52,1.29-16.1,6.15-25.49,18.16-10.05,40.94-5.26,49.95,0,3.05,3.1,5.25,23.68,4.58,25.16"/><path class="cls-4" d="M26.09,122.31c.29-2.29.74-6,1.48-9.39"/><path class="cls-4" d="M66.36,122.31c-.28-2.29-.74-6-1.47-9.39"/><path class="cls-5" d="M34.7,76.17a2,2,0,1,1,2,2,2,2,0,0,1-2-2Z"/><path class="cls-5" d="M53.22,76.17a2,2,0,1,1,2,2h0A2,2,0,0,1,53.22,76.17Z"/><path class="cls-6" d="M54.27,41.4c-2-1.59-2.54.19-2.86,1.25s-.3,2.91,1.3,2.87c1.4,1.26,2.7-.37,3.1-1.19S57.2,41.71,54.27,41.4Z"/><path class="cls-7" d="M55.62,40.27a2,2,0,0,0-1.33,1.17"/><path class="cls-8" d="M41,50.83a2.37,2.37,0,1,1,2.37,2.37A2.37,2.37,0,0,1,41,50.83Z"/><path class="cls-9" d="M24.59,51.88l6.56-1.67L33.8,60.68l-6.55,1.65Z"/><path class="cls-6" d="M26,53l4.51-1.14.35,1.37L26.32,54.4Z"/><path class="cls-10" d="M26.7,55.89l4.51-1.14"/><path class="cls-10" d="M27.08,57.38l4.51-1.15"/><path class="cls-10" d="M27.47,58.93,32,57.79"/><path class="cls-10" d="M27.85,60.43,29.62,60"/><path class="cls-10" d="M31.66,59.47l.71-.18"/><path class="cls-9" d="M20.25,28.12l17-8.07,5.3,11.13-17,8.07Z"/><path class="cls-11" d="M26.11,36.79l1.69-4.94,3.14.6,1.24-6.09,3,.5.88-4.29"/><path class="cls-3" d="M27.21,32.17A.86.86,0,0,1,27.62,31a.87.87,0,1,1-.41,1.16Z"/><path class="cls-3" d="M31.43,26.87A.87.87,0,0,1,33,26.12a.88.88,0,0,1-1.58.76Z"/><path class="cls-3" d="M63.56,36.26a3,3,0,1,1,3,3h0A3,3,0,0,1,63.56,36.26Z"/><path class="cls-11" d="M71.61,35.73A3.46,3.46,0,0,1,69.22,40a3.2,3.2,0,0,1-.92.13,3.08,3.08,0,0,1-.68-.07"/><path class="cls-3" d="M64.74,38.53l-1.15,2.06,4.74.77L67.81,39"/><path class="cls-12" d="M65.85,36.26a.7.7,0,0,1,.7-.71.71.71,0,0,1,.71.71.7.7,0,0,1-.71.7h0A.7.7,0,0,1,65.85,36.26Z"/><path class="cls-3" d="M70.71,35.55a.71.71,0,1,1,.71.71h0A.71.71,0,0,1,70.71,35.55Z"/><path class="cls-6" d="M13.93,13.74l4.43,1.19L14,31.09l-4.43-1.2Z"/><path class="cls-13" d="M11,24.68l2.44.66"/><path class="cls-13" d="M10.2,27.54l2.44.66"/><path class="cls-13" d="M11.75,21.82l2.44.66"/><path class="cls-13" d="M12.53,19l2.43.66"/><path class="cls-13" d="M13.3,16.08l2.44.66"/><path class="cls-9" d="M59.56,10.39l16.73,4L73.53,25.83l-16.72-4Z"/><path class="cls-6" d="M69.57,22.75a1.81,1.81,0,1,1,1.33,2.18h0A1.81,1.81,0,0,1,69.57,22.75Z"/><path class="cls-6" d="M70.1,24.24l-1.2,3.13L70.58,27l1.08,1,.21-3.41"/><path class="cls-10" d="M60.55,13.35l13.21,3.18"/><path class="cls-10" d="M59.79,16.48l8,1.92"/><path class="cls-8" d="M33,11.94,31.22,10l2.58-.59,2.59-.58-.79,2.53-.78,2.53Z"/><path class="cls-3" d="M68.68,52.73l-2.46,1,.37-2.62L67,48.46l2.08,1.64,2.08,1.64Z"/><path class="cls-11" d="M48.49,21.13a1.29,1.29,0,1,1,2.57,0,1.28,1.28,0,0,1-1.28,1.28h0A1.28,1.28,0,0,1,48.49,21.13Z"/><path class="cls-3" d="M12.62,42.64a1.29,1.29,0,1,1,1.28,1.28h0A1.28,1.28,0,0,1,12.62,42.64Z"/><path class="cls-5" d="M41.67,83.77h8.59s0,8.87,0,12.36c0,1.44-8.59,1.28-8.59,0Z"/><path class="cls-14" d="M37.28,75.29c0-6.59,4-11.93,8.95-11.93s9,5.34,9,11.93-4,11.93-9,11.93S37.28,81.88,37.28,75.29Z"/><path class="cls-2" d="M51.06,62.51C48.79,67.79,39.37,73,35.4,74.15,34.77,71,38.83,57.56,51.06,62.51Z"/><path class="cls-2" d="M46,62.34C44.3,63,49.9,72,56.61,74.15,59.35,70.26,53,62.16,46,62.34Z"/><path class="cls-3" d="M58.82,2.37a2.37,2.37,0,1,1,2.37,2.36h0a2.37,2.37,0,0,1-2.37-2.36Z"/><path class="cls-10" d="M18,64.56a2.21,2.21,0,1,1,2.21,2.2A2.21,2.21,0,0,1,18,64.56Z"/><path class="cls-11" d="M67,63.62a1.29,1.29,0,1,1,1.29,1.29h0A1.28,1.28,0,0,1,67,63.63Z"/><path class="cls-1" d="M86,19.86c7.23,8.94,11.91,18.75,10.81,27.47s-7.92,16.38-15.15,27S66.79,98.62,55.76,102,30.27,98.6,18.9,88-.76,62.87.06,49.23s10.72-26.46,22.09-35.4,24.18-14,35.5-12.49S78.77,10.92,86,19.86Z"/><path class="cls-2" d="M46.23,60c7.45,0,11.45,5,12.2,10s-.11,9.46.11,15.71c.14,4.22,2,7,3.19,10.79s-30.54,4.7-30.35,1.19,2.46-7.11,2.54-11.49-.55-7.14-.47-14.39C33.52,66.07,38.77,60,46.23,60Z"/><path class="cls-3" d="M15.61,122.74c-.28-3.53,1.29-16.1,6.15-25.49,18.16-10,40.94-5.27,49.95,0,3.05,3.1,5.25,23.68,4.58,25.16"/><path class="cls-4" d="M26.09,122.41c.29-2.29.74-6,1.48-9.39"/><path class="cls-4" d="M66.36,122.41c-.28-2.29-.74-6-1.47-9.39"/><path class="cls-5" d="M34.7,76.28a2,2,0,1,1,2,2,2,2,0,0,1-2-2Z"/><path class="cls-5" d="M53.22,76.28a2,2,0,1,1,2,2h0A2,2,0,0,1,53.22,76.28Z"/><path class="cls-6" d="M54.27,41.51c-2-1.59-2.54.18-2.86,1.24s-.3,2.92,1.3,2.88c1.4,1.25,2.7-.37,3.1-1.2S57.2,41.82,54.27,41.51Z"/><path class="cls-7" d="M55.62,40.37a2,2,0,0,0-1.33,1.17"/><path class="cls-8" d="M41,50.94a2.37,2.37,0,1,1,2.37,2.36A2.37,2.37,0,0,1,41,50.94Z"/><path class="cls-9" d="M24.59,52l6.56-1.66L33.8,60.78l-6.55,1.66Z"/><path class="cls-6" d="M26,53.13,30.48,52l.35,1.37L26.32,54.5Z"/><path class="cls-10" d="M26.7,56l4.51-1.14"/><path class="cls-10" d="M27.08,57.48l4.51-1.15"/><path class="cls-10" d="M27.47,59,32,57.89"/><path class="cls-10" d="M27.85,60.54l1.77-.45"/><path class="cls-10" d="M31.66,59.57l.71-.18"/><path class="cls-9" d="M20.25,28.23l17-8.08,5.3,11.13-17,8.07Z"/><path class="cls-11" d="M26.11,36.89,27.8,32l3.14.58,1.24-6.09,3,.51.88-4.3"/><path class="cls-3" d="M27.21,32.28a.87.87,0,0,1,.41-1.17.88.88,0,0,1,1.17.42.87.87,0,0,1-.42,1.16A.86.86,0,0,1,27.21,32.28Z"/><path class="cls-3" d="M31.43,27a.87.87,0,1,1,1.17.42A.87.87,0,0,1,31.43,27Z"/><path class="cls-3" d="M63.56,36.36a3,3,0,1,1,3,3h0A3,3,0,0,1,63.56,36.36Z"/><path class="cls-11" d="M71.61,35.84a3.28,3.28,0,0,1,.13.94,3.44,3.44,0,0,1-3.44,3.44,3.82,3.82,0,0,1-.68-.06"/><path class="cls-3" d="M64.74,38.64l-1.15,2,4.74.76-.52-2.4"/><path class="cls-12" d="M65.85,36.36a.7.7,0,0,1,.7-.71.71.71,0,0,1,0,1.42h0A.7.7,0,0,1,65.85,36.36Z"/><path class="cls-3" d="M70.71,35.65a.71.71,0,0,1,1.42,0,.71.71,0,0,1-.71.71h0A.71.71,0,0,1,70.71,35.65Z"/><path class="cls-6" d="M13.93,13.84,18.36,15,14,31.19,9.57,30Z"/><path class="cls-13" d="M11,24.78l2.44.66"/><path class="cls-13" d="M10.2,27.65l2.44.66"/><path class="cls-13" d="M11.75,21.92l2.44.66"/><path class="cls-13" d="M12.53,19.06l2.43.65"/><path class="cls-13" d="M13.3,16.19l2.44.66"/><path class="cls-9" d="M59.56,10.5l16.73,4-2.76,11.4-16.72-4Z"/><path class="cls-6" d="M69.57,22.85A1.81,1.81,0,1,1,70.9,25h0A1.81,1.81,0,0,1,69.57,22.85Z"/><path class="cls-6" d="M70.1,24.34l-1.2,3.14,1.68-.38,1.08,1,.21-3.42"/><path class="cls-10" d="M60.55,13.45l13.21,3.19"/><path class="cls-10" d="M59.79,16.58l8,1.92"/><path class="cls-8" d="M33,12l-1.8-1.94,2.58-.58,2.59-.59-.79,2.53L34.81,14Z"/><path class="cls-3" d="M68.68,52.83l-2.46,1,.37-2.62L67,48.57l2.08,1.63,2.08,1.64Z"/><path class="cls-11" d="M48.49,21.23a1.29,1.29,0,1,1,1.29,1.29h0A1.29,1.29,0,0,1,48.49,21.23Z"/><path class="cls-3" d="M12.62,42.74A1.29,1.29,0,1,1,13.9,44h0A1.28,1.28,0,0,1,12.62,42.74Z"/><path class="cls-5" d="M41.67,83.87h8.59s0,8.88,0,12.37c0,1.44-8.59,1.27-8.59,0Z"/><path class="cls-14" d="M37.28,75.39c0-6.58,4-11.93,8.95-11.93s9,5.35,9,11.93-4,11.93-9,11.93S37.28,82,37.28,75.39Z"/><path class="cls-2" d="M51.06,62.61C48.79,67.89,39.37,73.05,35.4,74.26,34.77,71.11,38.83,57.67,51.06,62.61Z"/><path class="cls-2" d="M46,62.45c-1.73.65,3.87,9.6,10.58,11.81C59.35,70.36,53,62.26,46,62.45Z"/><path class="cls-3" d="M58.82,2.47a2.37,2.37,0,1,1,2.37,2.36h0A2.37,2.37,0,0,1,58.82,2.47Z"/><path class="cls-10" d="M18,64.66a2.21,2.21,0,1,1,2.21,2.21A2.21,2.21,0,0,1,18,64.66Z"/><path class="cls-11" d="M67,63.73A1.29,1.29,0,1,1,68.27,65h0A1.28,1.28,0,0,1,67,63.73Z"/></g></g></g></g></svg>