<svg xmlns="http://www.w3.org/2000/svg" viewBox="0 0 72.7 57.99"><defs><style>.cls-1{fill:#fff;}</style></defs><g id="レイヤー_2" data-name="レイヤー 2"><g id="デザインカンプ"><path class="cls-1" d="M50.61,34.49c-1.4-2.94-2.85-6-4.26-9a5.4,5.4,0,0,1-.51-2.22A23.16,23.16,0,0,0,40,7.6,23,23,0,0,0,25.07.11C24.32,0,23.56,0,22.81,0A23,23,0,0,0,6.42,7,22.47,22.47,0,0,0,8.27,40.16a3.81,3.81,0,0,1,1.46,3.12c0,4.59,0,9.14,0,13.41,0,1,.3,1.29,1.25,1.3H33.13c.94,0,1.27-.34,1.28-1.28v-5a.7.7,0,0,1,.7-.71l1.24,0c3,0,5.43-.08,7.37-1.75s2.13-4,2.15-7.1V41.06a.71.71,0,0,1,.72-.7h4.92c.74,0,1.19-.18,1.3-.36s.08-.67-.24-1.36Zm-6.49,5.38v1.51c0,.87,0,1.85,0,2.81-.15,3.2-1.71,4.78-4.91,5-1.16.07-2.33.07-3.46.07l-1.74,0c-1,0-1.28.24-1.29,1.26s0,1.77,0,2.68v2.34a.72.72,0,0,1-.71.71H12.17a.71.71,0,0,1-.71-.71V51.47c0-.95,0-1.91,0-2.86v0c0-2.31,0-4.7,0-7a1.61,1.61,0,0,0-.81-1.5C3.39,34.56.47,27.16,2.2,18.63s7.3-14.26,16-16.36A21.07,21.07,0,0,1,44.09,23.48a5.39,5.39,0,0,0,.59,2.7c1.16,2.33,2.24,4.61,3.39,7l.12.26c.42.87.84,1.75,1.26,2.65l.74,1.53a.73.73,0,0,1,0,.69.71.71,0,0,1-.61.33H45.3C44.48,38.68,44.14,39,44.12,39.87Z"/><path class="cls-1" d="M57.65,28.14a1,1,0,1,0-1,1.73c.19.11,4.73,2.91,4.82,8,.1,5.31-4.62,8.22-4.82,8.34a1,1,0,0,0-.35,1.39,1,1,0,0,0,.87.49,1,1,0,0,0,.52-.15c.24-.14,5.92-3.64,5.8-10.11C63.34,31.74,58.23,28.49,57.65,28.14Z"/><path class="cls-1" d="M67,25a1,1,0,0,0-1.42.14,1,1,0,0,0,.14,1.43,15.24,15.24,0,0,1,5,11.22,15.28,15.28,0,0,1-5,11.69,1,1,0,0,0-.14,1.42,1,1,0,0,0,.78.38,1,1,0,0,0,.64-.23A17.48,17.48,0,0,0,72.7,37.78,17.09,17.09,0,0,0,67,25Z"/></g></g></svg>