<svg xmlns="http://www.w3.org/2000/svg" viewBox="0 0 205 205"><defs><style>.cls-1{fill:#f2f1ed;}.cls-16,.cls-17,.cls-2,.cls-20,.cls-21{fill:#fff;}.cls-15,.cls-2,.cls-5{stroke:#3f4d79;}.cls-15,.cls-18,.cls-2,.cls-5{stroke-linecap:round;}.cls-13,.cls-14,.cls-15,.cls-18,.cls-2,.cls-20,.cls-21,.cls-5{stroke-miterlimit:10;}.cls-18,.cls-2,.cls-20{stroke-width:5px;}.cls-3{fill:#ffb000;}.cls-4{fill:#e2631e;}.cls-13,.cls-14,.cls-15,.cls-18,.cls-19,.cls-5{fill:none;}.cls-5{stroke-width:7px;}.cls-6{fill:#ffc0b7;}.cls-7{fill:#3c4564;}.cls-8{fill:#fe7523;}.cls-9{fill:#ffcfc9;}.cls-10{fill:#3f4d79;}.cls-11{fill:#fab6ad;}.cls-12{fill:#ceeff7;}.cls-13{stroke:#84d7ec;}.cls-14{stroke:#fe7523;stroke-width:3px;}.cls-16{stroke:#ecbe02;stroke-miterlimit:10;stroke-width:6px;}.cls-18{stroke:#3cbfd4;}.cls-20,.cls-21{stroke:#ffb000;}</style></defs><g id="レイヤー_2" data-name="レイヤー 2"><g id="デザインカンプ"><circle class="cls-1" cx="102.5" cy="102.5" r="102.5"/><g id="Layer_2" data-name="Layer 2"><g id="Слой_1" data-name="Слой 1"><g id="_2" data-name=" 2"><g id="CHAIR"><path class="cls-2" d="M99.65,170h0a.69.69,0,0,1-.69-.66L102,126.62h4.24l-5.93,42.74A.68.68,0,0,1,99.65,170Z"/><path class="cls-2" d="M126,170h0a.68.68,0,0,1-.68-.66l-5.93-42.74h4.24l3.06,42.74A.69.69,0,0,1,126,170Z"/><path class="cls-2" d="M138.28,170h0a.68.68,0,0,1-.68-.66l-5.93-42.74h4.25L139,169.36A.68.68,0,0,1,138.28,170Z"/><polygon class="cls-2" points="139.85 117.45 138.63 122.37 134.6 122.37 135.82 117.45 139.85 117.45"/><polygon class="cls-2" points="124.12 117.45 122.89 122.37 118.86 122.37 120.08 117.45 124.12 117.45"/><path class="cls-3" d="M97,122h42.14a2.51,2.51,0,0,1,2.52,2.51h0a2.52,2.52,0,0,1-2.52,2.52H97a2.52,2.52,0,0,1-2.52-2.52h0A2.51,2.51,0,0,1,97,122Z"/><path class="cls-3" d="M156.51,82.89l-7.64,30.66a5.6,5.6,0,0,1-5.43,4.24H115.59c-1.54,0-2.61-2.33-2.08-4.53l7.61-31.49c.36-1.49,1.3-2.49,2.35-2.49h30.26C155,79.28,156.93,81.14,156.51,82.89Z"/></g><g id="CHARACTER"><g id="LEGS"><g id="LEFT_LEG" data-name="LEFT LEG"><g id="FOOT"><path class="cls-4" d="M68.61,162.62c0,.78,2.4,3.16,1.59,7.14,0,0-5.93,0-8.84,0-3.46,0-10.82,0-10.82,0s-.71-3.17,3.08-3.61,8.59-4.45,8.59-4.45Z"/><path class="cls-5" d="M70.46,170.12c-3.46,0-19.92,0-19.92,0"/><path class="cls-6" d="M62.32,161.75a41.3,41.3,0,0,0,.92-4.46l6.09.54a11.06,11.06,0,0,0-.83,4.68C68.55,163.32,61.91,162.9,62.32,161.75Z"/></g><path id="PANT" class="cls-7" d="M123.84,119.13c-6.78,2.77-38.55,1-38.55,1s-.65,24.9-12.6,37.78c0,0-8.24-.28-10.5-.86,0,0,6.25-37.25,10.71-44.57,2.36-3.87,28.92-9.78,34.64-10.28a32,32,0,0,0,5.41,2.9,44.67,44.67,0,0,0,14.56,3.21C128.12,111.93,128.22,117.34,123.84,119.13Z"/></g><g id="RIGHT_LEG" data-name="RIGHT LEG"><g id="FOOT-2"><path class="cls-8" d="M73.21,162.62c0,.78,2.41,3.16,1.6,7.14,0,0-5.93,0-8.84,0-3.46,0-10.82,0-10.82,0s-.72-3.17,3.07-3.61,8.6-4.45,8.6-4.45Z"/><path class="cls-5" d="M75.06,170.12c-3.46,0-19.91,0-19.91,0"/><path class="cls-9" d="M66.93,161.75a43.25,43.25,0,0,0,.91-4.46l7,.76s-1.27,1.16-1.74,4.46C73,163.31,66.52,162.9,66.93,161.75Z"/></g><path id="PANT-2" class="cls-10" d="M128.74,122.06c-6.77,2.77-38.54,1-38.54,1s.65,21.68-14.36,35A98,98,0,0,1,66.07,157s9.62-35.2,11.73-41.54C79,112,108.47,105.27,113,105.12a46.89,46.89,0,0,0,18.8,3.28C132.43,110.68,134.64,119.65,128.74,122.06Z"/></g></g><g id="LEFT_HAND" data-name="LEFT HAND"><path class="cls-6" d="M109.37,92.82c-7.69,1.54-26.16.88-33.9-.67a11.65,11.65,0,0,1-1.32.88,10.09,10.09,0,0,1-3.42,1c-.46,0-3.29-.46-3.29-.46s-.1-.33.31-.75,3.45-.08,2.34-1c-.49-.41-3,.52-4,1.55s-1.57.21-1.57.21a16.84,16.84,0,0,1,1.39-2.25,12.18,12.18,0,0,1,4.46-2,20.91,20.91,0,0,1,5.6.43,120.61,120.61,0,0,1,24.2-3c1-4.27,2.27-9.49,2.6-11l5.49,3.6Z"/><path class="cls-11" d="M102.75,75.71l-.34,1.54a8.86,8.86,0,0,0,6,4.78l-.18-2.73Z"/></g><g id="T-SHIRT"><path class="cls-12" d="M136.16,85.31l-1.1-.1c-.78,5.81-1.47,10.68-1.47,11.75,0,2.88.56,11.3.56,11.3s-15.15,1.7-26.7-6.11c0,0,2.67-3.6,1.29-15-.93-7.55-.5-7.89-.5-7.89a47.84,47.84,0,0,1-6.84-4.65s2.08-10.3,5.4-12.32,8.48-3,11.91-4.25,8.63-2.63,8.63-2.63c1.39,1.14,8,4.36,9.62,6.3C139.29,63.89,142.49,72.36,136.16,85.31Z"/><path class="cls-13" d="M122.85,81.92s1.41-2.33,3.12-10.81"/><path class="cls-13" d="M108.11,79.09a50.45,50.45,0,0,1,.33-8"/></g><g id="RIGHT_HAND" data-name="RIGHT HAND"><path class="cls-9" d="M135.06,85.21s-6,15.17-8.72,15.42c-8.85.82-23.65-7.61-26.84-7.71l-1.41,0a3.56,3.56,0,0,1-2.63.6c-1.7-.49-3.07-1.73-4.2-1.2s-2.43,1.55-3.15,1.46a4.5,4.5,0,0,1-2.36-1s.93-1,1.87-2c-.67.26-1.68,1-2.2,1.23a.89.89,0,0,1-1.19-.3S86,90.17,86.59,89.8a8.29,8.29,0,0,1,3-.74c1-.14,6.51-.89,9.34-.59,3.25-.12,9.77.11,21.26,2.27l3.29-8.44A42.46,42.46,0,0,0,135.06,85.21Z"/><path class="cls-11" d="M135.06,85.21s-.54,1.37-1.37,3.3a24.67,24.67,0,0,1-10.34-5.75l.18-.47A42.24,42.24,0,0,0,135.06,85.21Z"/></g><g id="HEAD"><g id="NECK"><path class="cls-9" d="M121.33,45.33a14.38,14.38,0,0,0,6,10.12s-2.93,6.4-9.68,6.84S116,59,116,59s-1.76-5.83-2-7.21Z"/><path class="cls-11" d="M121.31,48.65c-.33,2.93-2.92,7.13-6.12,7.56-.5-1.71-1.08-3.73-1.24-4.47l7-6.09.22.44A19.16,19.16,0,0,1,121.31,48.65Z"/></g><path id="HEAD-2" class="cls-9" d="M120.81,45.79a9.29,9.29,0,0,1-.17,2.57c-1.24,2.58-5.13,5.54-8.16,5.54-2.34,0-5.08-7.13-5.33-9.76s.1-6.8,6.45-7.29,6.79,6.1,6.79,6.1Z"/><g id="HAIR"><path class="cls-8" d="M102.29,41.46a3.44,3.44,0,0,1,.79-4.06c2.33-2,4.46-1.1,5.66-2.39s3.68-4,7.39-3.57a5.23,5.23,0,0,1,4.29,2.73s2-.87,3.84,1.46-2.53,12-2.53,12-1.16-3.86-1.34-4.69c-.4-1.87-4.07-1.43-3.77-5.06,0,0-1,2.48-4.76,2.43a32.89,32.89,0,0,1-4-.54,7.47,7.47,0,0,0-.7,4.36S103.78,44.09,102.29,41.46Z"/><path class="cls-14" d="M120.32,34.17a2.55,2.55,0,0,1,3.43-.07"/><path class="cls-14" d="M116.62,37.69a4.7,4.7,0,0,1-4.45,3.55"/></g><g id="HEADPHONES"><path class="cls-15" d="M121.39,41.89l-1.2-9a1.2,1.2,0,0,0-1.26-1"/><path class="cls-15" d="M122.39,48.45c.32,1.58,3.11,5.91-1.75,14.16S122.1,73.32,118.9,79s-10.13,5.34-9.77,14.8c.24,6.23-5.34,7.07-5,0"/><path class="cls-15" d="M112.2,85.31c1.67-1.37,3.35-9.08.68-13.47s-5.3-10.31-1.35-17.76"/><rect class="cls-16" x="119.27" y="41.88" width="5.02" height="6.63" rx="1.32" transform="translate(-5.38 18.7) rotate(-8.59)"/></g></g></g><g id="TABLE"><path class="cls-17" d="M52.5,96h60.43c.65,0,1.17.75,1.17,1.67v.15c0,.92-.52,1.67-1.17,1.67H67.44"/><path class="cls-18" d="M53.17,95.82h59.76c.65,0,1.17.74,1.17,1.66v.16c0,.92-.52,1.66-1.17,1.66H67.66"/><polygon class="cls-18" points="110.09 170.76 98.64 99.42 102.59 99.42 113.92 170.65 110.09 170.76"/><polygon class="cls-12" points="103.25 103.04 99 101.45 98.64 99.42 102.59 99.42 103.25 103.04"/><polyline class="cls-19" points="109.87 170.31 98.64 99.42 102.59 99.42 113.7 170.2"/></g><g id="LAPTOP"><path class="cls-20" d="M95.65,92.88h-34a2.19,2.19,0,0,1-2.07-1.44L51.73,70.08a1.75,1.75,0,0,1,1-2.25,1.57,1.57,0,0,1,.61-.11H87.84a2.48,2.48,0,0,1,2.33,1.63l7.55,20.57a2.19,2.19,0,0,1-2.07,3Z"/><path class="cls-21" d="M94.17,92.88H61.3a2.15,2.15,0,0,1-2-1.44L51.73,70.08a1.74,1.74,0,0,1,1.59-2.36h33.3a2.4,2.4,0,0,1,2.25,1.62l7.3,20.58A2.2,2.2,0,0,1,94.17,92.88Z"/><rect class="cls-21" x="60.1" y="92.88" width="51.2" height="2.32" rx="1.13"/></g></g></g></g></g></g></svg>