<svg xmlns="http://www.w3.org/2000/svg" viewBox="0 0 205 205"><defs><style>.cls-1{fill:#f2f1ed;}.cls-13,.cls-14,.cls-15,.cls-2,.cls-5,.cls-7,.cls-8{fill:none;stroke-miterlimit:10;}.cls-14,.cls-15,.cls-2{stroke:#ffb000;}.cls-2,.cls-7,.cls-8{stroke-linecap:round;}.cls-2,.cls-5{stroke-width:5px;}.cls-3{fill:#dbdaff;}.cls-4{fill:#fff;}.cls-5{stroke:#6562cf;}.cls-6{fill:#ffd1cb;}.cls-7,.cls-8{stroke:#eeb9af;}.cls-13,.cls-7{stroke-width:3px;}.cls-9{fill:#ffb000;}.cls-10{fill:#f3c2b9;}.cls-11{fill:#ffc440;}.cls-12{fill:#424d76;}.cls-13{stroke:#424d76;}.cls-15{stroke-width:4px;}</style></defs><g id="レイヤー_2" data-name="レイヤー 2"><g id="デザインカンプ"><circle class="cls-1" cx="102.5" cy="102.5" r="102.5"/><g id="Layer_2" data-name="Layer 2"><g id="Слой_1" data-name="Слой 1"><g id="_4" data-name=" 4"><g id="CHAIR"><path class="cls-2" d="M115.05,179.16l4.44-52.2a3.1,3.1,0,0,1,3-2.84h0a3.1,3.1,0,0,1,3,2.84l5.62,52.2"/><path class="cls-2" d="M84.39,179.16,88.82,127a3.1,3.1,0,0,1,3-2.84h0a3.1,3.1,0,0,1,3,2.84l5.62,52.2"/><path class="cls-3" d="M132.73,120.88c0,2.36-11.43,4.28-25.54,4.28s-25.54-1.92-25.54-4.28c0-.4.34-.8,1-1.17,3-1.79,12.89-3.11,24.58-3.11s21.54,1.31,24.58,3.11C132.4,120.08,132.73,120.48,132.73,120.88Z"/><path class="cls-4" d="M131.77,119.71c-2.7,2.09-12.68,3.64-24.58,3.64s-21.88-1.55-24.58-3.64c3-1.79,12.89-3.11,24.58-3.11S128.73,117.91,131.77,119.71Z"/><ellipse class="cls-5" cx="107.19" cy="120.88" rx="25.54" ry="4.28"/></g><g id="WOMAN"><g id="LEFT_HAND" data-name="LEFT HAND"><path class="cls-6" d="M101.27,56s-.59,14.8-1.81,17.52S91,88.76,88.19,88.47c-5.38-.56-13.08-26.94-14-30.24h0a3.87,3.87,0,0,0-1.74-1.68c-3.84-1.88-4.52-3.43-5.32-4.8l-.58-4.06c1.76-1.08,3.18,1.94,3.65,2.65A3,3,0,0,0,73.6,51.7c.84-.11-.42-1.16-.9-2.12a1.75,1.75,0,0,1,.21-2.16c.17.72,3.08,4,4,5.16s.78,3.21.76,3.56h0C78.83,58,87.78,74.06,87.78,74.06s5.06-12.69,7.11-15C96.38,57.31,99.85,56.49,101.27,56Z"/><path class="cls-7" d="M69,51.78a4.75,4.75,0,0,0-1-2.21s-.26-1.59-1.29-1.86"/><path class="cls-8" d="M69.78,51.45a4.68,4.68,0,0,0-1.14-2.16s-.85-2.18-2-1.58"/></g><g id="LEGS"><g id="LEFT"><path class="cls-9" d="M90.68,179.53H89.27l.07-4.09-1.74,4.09H76.89s-.19-2.32,1.58-2.64A6.33,6.33,0,0,0,81.38,175l7.32-7.41a9.63,9.63,0,0,1,2.61,6A24.93,24.93,0,0,1,90.68,179.53Z"/><path class="cls-6" d="M74.67,110.42c-2.3.33-5.88,4.65-3.06,13.18S84.88,165,84.77,167.45c-.14,3.3-3.39,7.52-3.39,7.52s3.46,1.89,5.53-1.16a10.5,10.5,0,0,0,1.79-6.26s.84-26.76-2.24-43.57C85,116.28,78.81,109.83,74.67,110.42Z"/><path class="cls-10" d="M87.43,131c-.92,0-1.85,0-2.8,0a30.39,30.39,0,0,1-11.46-2.58c-.24-.73-.45-1.41-.66-2a36.85,36.85,0,0,0,12.12,2.39c.75,0,1.48,0,2.21,0h0C87,129.49,87.23,130.22,87.43,131Z"/></g><g id="RIGHT"><path class="cls-11" d="M101.39,179.53H100l.07-4.09-2.33,4.09H87.36s-.19-2.32,1.58-2.64A7.74,7.74,0,0,0,92.1,175l7.32-7.41a9.69,9.69,0,0,1,2.6,6A24.93,24.93,0,0,1,101.39,179.53Z"/><path class="cls-6" d="M86.33,110.59c-1.87,1.46-3.76,4.73-.94,13.26S95.67,165,95.48,167.45,92.1,175,92.1,175s3.46,1.89,5.53-1.16a10.58,10.58,0,0,0,1.79-6.26s5.17-24.52,2.23-40.84C100.05,117.76,91.51,106.55,86.33,110.59Z"/><path class="cls-10" d="M101.9,128.21A48.87,48.87,0,0,1,87.47,131h0c-.2-.77-.4-1.5-.59-2.2a67.84,67.84,0,0,0,14.88-1.69Q101.83,127.66,101.9,128.21Z"/></g></g><path id="SKIRT" class="cls-12" d="M69.34,124.83s-1.87-11.2,5.47-16.16,28.79-9,27.85-14.06l18.78-.45s4.25,6.48,4.94,13.36c.8,8-.92,14-16.46,13.94-8.34,0-7.19,5.39-7.19,5.39a66.27,66.27,0,0,1-18.1,1.9C74.73,128.38,69.34,124.83,69.34,124.83Z"/><path id="TORSO" class="cls-9" d="M104.9,54.54A28.65,28.65,0,0,0,101.27,56S97.83,69.64,97,71.48s-1.37,4.78,2.14,7.41l3.55,16h18.76s1.45-16.66,2.44-22.49-.25-16.95-.25-16.95l-7-.86Z"/><g id="RIGHT_HAND" data-name="RIGHT HAND"><path class="cls-6" d="M137.24,90.8c-.83,5.2-29.32,4.15-31.16,4.08-.44.48-2,2-3.31,1.72-1.56-.36-2.89-1.33-3.85-.86s-2.06,1.46-2.7,1.41A6.77,6.77,0,0,1,94,96.63c.46-.68,1-1.34,1.47-2-.56.27-1.33.83-1.74,1a.86.86,0,0,1-1.09-.21,24.1,24.1,0,0,1,1.94-1.66,9.07,9.07,0,0,1,2.75-1.12c.9-.14,6.21-1.24,8.66-1v0c1.07-.31,20.71-5.8,22.09-6.12,0,0-4.87-16.74-5.53-19.5s-.88-10.94,1.12-10.74c1.3.13,4.26.42,6,4.57C130.86,62.92,138.27,84.39,137.24,90.8Z"/><path class="cls-8" d="M94.79,96.69a16.29,16.29,0,0,1,2.68-2.48l2.27-.6"/><path class="cls-7" d="M95.81,96.83a13.25,13.25,0,0,1,2.4-2l2.26-.59"/></g><g id="HEAD"><g id="NECK"><path class="cls-6" d="M107.28,46.46a8.77,8.77,0,0,1-2.38,8.08,20,20,0,0,0,11.79,0s-2-8-1.94-10.39Z"/><path class="cls-10" d="M114,45.93c-.35,3.84-4.22,6.89-7.89,7a8.89,8.89,0,0,0,1.13-6.5l6.64-2.08A10,10,0,0,1,114,45.93Z"/></g><g id="HAIR"><path class="cls-12" d="M103,39.09c-.42-.53-.68-3.89,1.07-5.48,3.34-3,9.5-4.31,13.2-2.14s5,4.85,4.41,10.19c-.55,5.11-1.73,6.15,1.3,9.93a12.34,12.34,0,0,1,1.92,12.21c-4,9.81,3.79,9.61,3.79,14.56H116.61s-8.46-7.67-4.33-17.21C116,52.61,116.63,49.69,114,45,112.59,42.58,103,39.09,103,39.09Z"/><path class="cls-13" d="M116.34,31.15a10,10,0,0,1,6.51,10.2c-.55,5.11-1.73,6.14,1.3,9.92a12.38,12.38,0,0,1,1.91,12.22c-4,9.81,3.79,9.6,3.79,14.56"/></g><path id="HEAD-2" class="cls-6" d="M114,42.53s1.89-.26,2,.46c.25,1.47-1.84,2-1.84,2s-.38,1.07-.85,2.14c-.28.63-4.46,2.71-6.35,2.5s-3.71-5.36-3.74-10c0-3.34,1-5.08,3.22-5.08,3,0,4.48,2.37,6.57,1.69A6.48,6.48,0,0,0,114,42.53Z"/><g id="GLASSES"><ellipse class="cls-14" cx="103.65" cy="41.68" rx="2.23" ry="2.33"/><ellipse class="cls-14" cx="109.2" cy="41.68" rx="2.23" ry="2.33"/><line class="cls-15" x1="105.87" y1="41.68" x2="106.97" y2="41.68"/><line class="cls-14" x1="111.43" y1="41.68" x2="116.09" y2="41.68"/></g></g></g></g></g></g></g></g></svg>