<svg xmlns="http://www.w3.org/2000/svg" viewBox="0 0 205 205"><defs><style>.cls-1{fill:#f2f1ed;}.cls-2{fill:#c36f0b;}.cls-3{fill:#b65a18;}.cls-4{fill:#3f4d79;}.cls-5{fill:#3cbfd4;}.cls-14,.cls-15,.cls-6,.cls-9{fill:none;}.cls-13,.cls-6{stroke:#fff;stroke-width:0.75px;}.cls-13,.cls-14,.cls-15,.cls-6,.cls-7,.cls-9{stroke-miterlimit:10;}.cls-12,.cls-13,.cls-16,.cls-7{fill:#fff;}.cls-15,.cls-7{stroke:#3f4d79;stroke-width:6px;}.cls-15,.cls-7,.cls-9{stroke-linecap:round;}.cls-8{fill:#ffb000;}.cls-9{stroke:#b65a18;}.cls-14,.cls-9{stroke-width:3px;}.cls-10{fill:#fe7523;}.cls-11{opacity:0.5;}.cls-14{stroke:#ffb000;}.cls-16{stroke:#3cbfd4;stroke-miterlimit:10;stroke-width:6px;}</style></defs><g id="レイヤー_2" data-name="レイヤー 2"><g id="デザインカンプ"><circle class="cls-1" cx="102.5" cy="102.5" r="102.5"/><g id="Layer_2" data-name="Layer 2"><g id="Слой_1" data-name="Слой 1"><g id="_1" data-name=" 1"><g id="RIGHT_FOOT" data-name="RIGHT FOOT"><g id="FOOT"><path id="FOOT-2" class="cls-2" d="M115.29,164.1c.85,1.65,4,6.19,4,8.37,0,1.78-1.48,3.15-.71,4.37,1,1.61,13.47.52,13.8.44s-5.73-3-7.36-6a26.68,26.68,0,0,1-2.71-7.44Z"/><path id="SHADOW" class="cls-3" d="M122.52,164.79a22.88,22.88,0,0,1-5.74,1.86c-.62-1.05-1.19-2-1.49-2.55l7-.25S122.38,164.2,122.52,164.79Z"/></g><g id="SHOES"><path class="cls-4" d="M124.56,177.46l3.17-3.88s5.16,1.85,5.16,3.88Z"/><path class="cls-4" d="M126,171.34v.24a.45.45,0,0,1-.45.46h-5c2.52,1.33,3.37,5.42,3.37,5.42h-5.38c-1.22-2,.19-4.84.61-5.61a.5.5,0,0,1-.08-.26v-.25a.46.46,0,0,1,.46-.45h6A.45.45,0,0,1,126,171.34Z"/><rect class="cls-5" x="117.81" y="177.46" width="15.64" height="1.16" rx="0.46"/></g></g><g id="LEFT_FOOT" data-name="LEFT FOOT"><g id="FOOT-3"><path id="FOOT-4" class="cls-2" d="M83.29,164.1c.37,1.39,1.72,6.16,1.24,7.87s-1.83,3-1.47,4.71,11.29.68,11.63.61-5.79-3.47-5.86-6a50,50,0,0,1,.73-7.19Z"/><path id="SHADOW-2" class="cls-3" d="M83.29,164.1h6.27s-.15.89-.32,2.11a13.42,13.42,0,0,1-5.63-.92C83.48,164.79,83.37,164.37,83.29,164.1Z"/></g><g id="SHOES-2"><path class="cls-4" d="M86.79,177.53a7.36,7.36,0,0,1,3.4-2.24,5.46,5.46,0,0,1,4.42.34,4.7,4.7,0,0,1,1.78,1.82Z"/><path class="cls-4" d="M89.46,171.34v.24A.46.46,0,0,1,89,172H84.72c2.12,1.05,2,5.46,2,5.46H83c-1.23-2,.53-4.75,1-5.47-.19,0-.27-.22-.27-.45v-.24c0-.26.1-.46.35-.46H89A.46.46,0,0,1,89.46,171.34Z"/><rect class="cls-5" x="82.39" y="177.46" width="14.62" height="1.16" rx="0.46"/></g></g><g id="PANTS"><path class="cls-5" d="M123.42,163.55a28.43,28.43,0,0,1-13.26.55c-1.79-4.33-4.82-13.19-4.82-32.65,0-3.43-4-9.79-7.21-17.19-1.58,10.65-3.15,21.52-3.41,23.42-.52,3.79-3,26.2-3,26.2-8,1.53-12.3-.11-12.3-.11-1.35-20.78,5.49-30.14,5.22-33.83-.16-2.31-2.24-18.09-2.24-28.81,0-11.32,4.41-17.61,10.08-22.58l.06,0c.52.32,4.54,2.53,15.11,1.4.86,6.64,6.1,25.44,9.85,54.64A247.87,247.87,0,0,0,123.42,163.55Z"/><path id="_Контур_" data-name=" Контур " class="cls-6" d="M100.86,98.16c-.82,5.19-1.57,10.84-2.67,18.27"/></g><g id="RIGHT_HAND_MICROPHONE" data-name="RIGHT HAND MICROPHONE"><path id="ARM" class="cls-2" d="M129.77,48.21c0,.5-.45,1.33.07,1.26.27,0,2.2-.6,2.52.09a1.52,1.52,0,0,1,.08,1,1.1,1.1,0,0,1,.25,1.15,1.12,1.12,0,0,1,.28,1.13s.59,1,.18,1.29a7.37,7.37,0,0,1-4.44,1.2,2.34,2.34,0,0,1-2.1-2,6.43,6.43,0,0,1,.66-3.11c.16-.31.74-1.52,1-1.86a3.74,3.74,0,0,0,.5-1.63S129.82,46.82,129.77,48.21Z"/><path id="HAND" class="cls-2" d="M110.07,48.46c2.53.78,8.05,17.86,8.05,17.86S126.56,53.12,127,53s2,2.2,2,2.2S125.2,75.51,117.77,76c-5.47.35-10-17.51-10.49-20.21C106.65,52,107.27,47.58,110.07,48.46Z"/><g id="MICROPHONE"><path class="cls-4" d="M126.71,39l-5.26,0V34a2.12,2.12,0,0,1,2.2-2h.86a2.12,2.12,0,0,1,2.2,2Zm-4.87-.41,4.48,0V34a1.73,1.73,0,0,0-1.81-1.63h-.86A1.73,1.73,0,0,0,121.84,34Z"/><path class="cls-5" d="M126,34.78v8.83a.82.82,0,0,1-.82.82h-3a.63.63,0,0,1-.19,0,.84.84,0,0,1-.6-.57.83.83,0,0,1,0-.22V34.78a2.08,2.08,0,0,1,2.08-2.07H124A2.08,2.08,0,0,1,126,34.78Z"/><rect class="cls-4" x="121.39" y="34.83" width="1.21" height="0.39"/><rect class="cls-4" x="121.39" y="35.94" width="1.21" height="0.39"/><rect class="cls-4" x="121.39" y="37.05" width="1.21" height="0.39"/><path class="cls-4" d="M130.08,61.55a.3.3,0,0,1-.29-.3V35.92a.29.29,0,0,1,.29-.3.3.3,0,0,1,.3.3V61.25a.31.31,0,0,1-.3.3Z"/><rect class="cls-7" x="128.97" y="61.25" width="2.11" height="117.04"/><polygon class="cls-4" points="122.97 39.7 121.39 41.15 121.39 40.61 122.7 39.41 122.97 39.7"/><polygon class="cls-4" points="123.95 39.88 121.39 42.23 121.39 41.7 123.69 39.59 123.95 39.88"/><polygon class="cls-4" points="125.14 39.88 121.39 43.31 121.39 42.78 124.87 39.59 125.14 39.88"/><path class="cls-4" d="M126,39.77v.39l-4.4,4a.84.84,0,0,1-.21-.35L126,39.69Z"/><path class="cls-4" d="M126,40.74v.53l-3.45,3.15h-.37a.62.62,0,0,1-.19,0Z"/><polygon class="cls-4" points="126.03 41.82 126.03 42.35 123.76 44.43 123.17 44.43 126.03 41.82"/><polygon class="cls-4" points="126.03 42.9 126.03 43.43 124.94 44.43 124.36 44.43 126.03 42.9"/><path class="cls-8" d="M130.67,38.92v.69h-4a.43.43,0,0,1-.29.32l-.13,0h-5.09a.43.43,0,0,1-.43-.43V39a.43.43,0,0,1,.43-.43h5.09l.13,0a.43.43,0,0,1,.29.33Z"/></g><g id="FINGERS"><path class="cls-2" d="M132.28,54.25c-1.76.55-2.15.51-2.27-.28,0-.24.18-.36.37-.41l-.27,0c-.27.07-.72-.84-.32-1.1-.17-.08-.35-.68-.35-1.21-.31-.21-.33-.85,0-1s2.34-.43,2.25-.75Z"/><path class="cls-9" d="M132.25,50.64a12.93,12.93,0,0,1-2.43.69c-.63.19-.82-.86-.34-1s1.93-.63,2.24-.75"/><path class="cls-9" d="M132.45,51.79a14.31,14.31,0,0,1-2.53.72c-.3.1-.84-.95-.1-1.18"/><path class="cls-9" d="M132.74,52.87a11.07,11.07,0,0,1-2.63.72c-.29.08-.7-1,0-1.11"/><path class="cls-9" d="M130.67,53.51s-.73,0-.66.46c.12.79.51.83,2.27.28"/></g></g><g id="TOP"><path class="cls-10" d="M109.47,67.34S108,77.89,107.63,80s-12.43,1.84-15.1-1.46A115.62,115.62,0,0,0,88.37,61c-2.32-6.61-2.57-14.17-.63-15.11,2.59-1.26,8.6-2.55,9.8-4.59A11.52,11.52,0,0,0,98.18,40h0c4.12,3.15,7.39,2.84,7.39,2.84-.26,1-.37,1.93,0,2.3.85.91,5.1,2.38,5.27,4,.07.71-2.35,3.25-.37,10C111.76,63.58,112.51,65.25,109.47,67.34Z"/><g class="cls-11"><path class="cls-12" d="M101.56,42l-14.13,4.2a1.16,1.16,0,0,1,.31-.22,35.41,35.41,0,0,1,3.52-1.33L101,41.7Z"/><path class="cls-12" d="M105.59,42.8l0,.11-19,5.65c0-.14,0-.29.07-.43l18-5.35A6,6,0,0,0,105.59,42.8Z"/><path class="cls-12" d="M105.53,45.07,86.44,50.75v-.41l18.94-5.63A.89.89,0,0,0,105.53,45.07Z"/><path class="cls-12" d="M107.89,46.53,86.56,52.87l0-.4,20.87-6.21Z"/><path class="cls-12" d="M110.14,48,86.83,55l-.06-.4,23-6.84Z"/><path class="cls-12" d="M109.89,52c0,.14,0,.29-.08.43L87.72,59c0-.13-.07-.25-.1-.38Z"/><path class="cls-12" d="M110.7,49.59c-.06.13-.12.29-.2.47L87.22,57l-.09-.38Z"/><path class="cls-12" d="M109.68,54.61,88.34,61c0-.12-.09-.25-.13-.37l21.47-6.39Z"/><path class="cls-12" d="M109.89,56.71,89,62.92l-.12-.37,21-6.24Z"/><path class="cls-12" d="M110.34,58.73,89.58,64.9c0-.13-.07-.25-.11-.38l20.77-6.18C110.28,58.47,110.31,58.6,110.34,58.73Z"/><path class="cls-12" d="M110.92,60.71l-20.8,6.18c0-.12-.07-.25-.1-.38l20.79-6.18C110.85,60.45,110.89,60.58,110.92,60.71Z"/><path class="cls-12" d="M111.44,62.71,90.62,68.9l-.09-.38,20.83-6.2C111.39,62.45,111.42,62.58,111.44,62.71Z"/><path class="cls-12" d="M111.57,64.41a2,2,0,0,1-.07.43L91.08,70.92c0-.13,0-.26-.08-.39Z"/><path class="cls-12" d="M109.83,67.09c-.11.08-.23.17-.36.25l0,.27L91.51,72.94c0-.12-.05-.25-.08-.38Z"/><path class="cls-12" d="M109.18,69.44c0,.13,0,.28-.06.43L91.91,75c0-.13,0-.26-.07-.39Z"/><path class="cls-12" d="M108.86,71.68c0,.15,0,.29-.07.44L92.28,77l-.06-.4Z"/><path class="cls-12" d="M108.53,73.94l-.06.43L93,79c-.11-.1-.22-.21-.32-.32Z"/><path class="cls-12" d="M108.21,76.19c0,.15,0,.29-.07.43L95.63,80.34c-.22-.07-.43-.15-.63-.23Z"/><path class="cls-12" d="M107.87,78.44l-.06.43L100,81.21l-1-.12Z"/></g></g><g id="PAPER"><path class="cls-13" d="M132.53,72.05a2.12,2.12,0,0,1,0,.44h-13.8a2.23,2.23,0,0,0-2.24-2.23,2.16,2.16,0,0,0-.93.2,4.68,4.68,0,0,1,2.12-.64h12.81A2.24,2.24,0,0,1,132.53,72.05Z"/><path class="cls-13" d="M126.38,72.49l-6.26,11.83a3.94,3.94,0,0,1-3.48,2.1H103.88a3.94,3.94,0,0,0,3.49-2.1l6.35-12a4.62,4.62,0,0,1,1.12-1.4,4,4,0,0,1,.68-.49,2.25,2.25,0,0,1,3,1.11,2.29,2.29,0,0,1,.2.93Z"/></g><path id="LEFT_HAND" data-name="LEFT HAND" class="cls-2" d="M87.35,46.4c-1.89.74-8.3,14.06-8.3,23.8,0,3.16,8.64,8.32,23.33,12.8a27.84,27.84,0,0,0,9.9,1.16c.9-.21,3.16-5,3.16-5a1.83,1.83,0,0,0-1.63.73,3.94,3.94,0,0,1-4,1.12c-.9-.28.12-2.1.12-2.1a19.27,19.27,0,0,0-2.76-.07,25.24,25.24,0,0,0-3.26,1.37S87.48,68.89,86.16,68.57c0,0,4.35-11.26,5-14.75C92,49.46,89.64,45.51,87.35,46.4Z"/><g id="HEAD"><path id="NECK" class="cls-3" d="M106.65,39.78a23,23,0,0,0-1.06,3s-3.27.31-7.39-2.84h0c.85-2.09,1.85-5.3,2-5.76l.13.05Z"/><path id="HEAD-2" class="cls-2" d="M107.91,40.3c1.48,0,2.72-4.42,2.72-6s-1-6.42-3.4-7.11-6.59-.47-6.64,2.21a25.58,25.58,0,0,0,1.11,7.43C102.07,37.51,105.07,40.3,107.91,40.3Z"/><g id="HAIR"><path class="cls-8" d="M102,28c2.31-1.16,3.93,1.54,7.2,1.06a4.16,4.16,0,0,0,3.54-4.9A3.62,3.62,0,0,0,109,21s1.13.75.11,1.53c-1.53,1.15-1.86-1.32-4.8-1.11-1.54.11-1,2-2.69,1.11-2.1-1.16-5.79-1.23-5.37,4a2.68,2.68,0,0,0-2.21,2.65c0,1.81,1.83,2.48,3,3.39,2.53,2.05,2.35,4.22,2.35,4.22s1.49-.43.81-2.64c-.56-1.81.54-1.93,1-1.74C102.28,32.87,100.18,28.92,102,28Z"/><path class="cls-14" d="M96.37,26.41s-2.21-.77-2.7,1.34"/><path class="cls-14" d="M101.82,27.93c2.38-1,4.34,2,7.32,2a4.7,4.7,0,0,0,4.57-4.66"/></g><g id="HEADPHONES"><path class="cls-15" d="M98.84,31.82l-3-7.08a.89.89,0,0,1,.48-1.18h0"/><rect class="cls-16" x="97.38" y="31.62" width="5.2" height="6.07" rx="2.24" transform="translate(-5.83 33.39) rotate(-18.43)"/></g></g></g></g></g></g></g></svg>